<svg width="17" height="17" viewBox="0 0 17 17" fill="none" xmlns="http://www.w3.org/2000/svg">
<path d="M10.8543 8.63463H9.57411C9.57411 10.68 9.57411 13.1976 9.57411 13.1976H7.67708C7.67708 13.1976 7.67708 10.7044 7.67708 8.63463H6.77531V7.02192H7.67708V5.97879C7.67708 5.23171 8.03208 4.06433 9.59154 4.06433L10.9973 4.06972V5.6352C10.9973 5.6352 10.1431 5.6352 9.97697 5.6352C9.81088 5.6352 9.57474 5.71825 9.57474 6.07452V7.02224H11.0201L10.8543 8.63463Z" fill="#A8A8A8"/>
<mask id="mask0_2_450" style="mask-type:alpha" maskUnits="userSpaceOnUse" x="6" y="4" width="6" height="10">
<path d="M10.8543 8.63463H9.57411C9.57411 10.68 9.57411 13.1976 9.57411 13.1976H7.67708C7.67708 13.1976 7.67708 10.7044 7.67708 8.63463H6.77531V7.02192H7.67708V5.97879C7.67708 5.23171 8.03208 4.06433 9.59154 4.06433L10.9973 4.06972V5.6352C10.9973 5.6352 10.1431 5.6352 9.97697 5.6352C9.81088 5.6352 9.57474 5.71825 9.57474 6.07452V7.02224H11.0201L10.8543 8.63463Z" fill="white"/>
</mask>
<g mask="url(#mask0_2_450)">
<rect x="0.904221" y="0.802612" width="15.6571" height="15.6571" fill="white"/>
</g>
</svg>
