<svg width="16" height="17" viewBox="0 0 16 17" fill="none" xmlns="http://www.w3.org/2000/svg">
<path fill-rule="evenodd" clip-rule="evenodd" d="M4.55734 4.71692C3.90647 4.71692 3.48065 5.14416 3.48065 5.70549C3.48065 6.2549 3.89413 6.69448 4.53236 6.69448H4.54471C5.20834 6.69448 5.62096 6.2549 5.62096 5.70549C5.60834 5.14416 5.20834 4.71692 4.55734 4.71692ZM12.355 9.91616V13.1979H10.4524V10.1361C10.4524 9.36731 10.1777 8.84231 9.48878 8.84231C8.96307 8.84231 8.65076 9.19577 8.51284 9.53801C8.46275 9.66032 8.44984 9.83017 8.44984 10.0017V13.1977H6.54706C6.54706 13.1977 6.5726 8.0121 6.54706 7.47531H8.44998V8.28623C8.44819 8.28923 8.44605 8.29219 8.44393 8.29512C8.44153 8.29844 8.43916 8.30172 8.43735 8.30496H8.44998V8.28623C8.70284 7.89716 9.15377 7.34094 10.1648 7.34094C11.4165 7.34094 12.355 8.15881 12.355 9.91616ZM5.49581 13.1979H3.59374V7.47532H5.49581V13.1979Z" fill="#A8A8A8"/>
<mask id="mask0_2_435" style="mask-type:alpha" maskUnits="userSpaceOnUse" x="3" y="4" width="10" height="10">
<path fill-rule="evenodd" clip-rule="evenodd" d="M4.55734 4.71692C3.90647 4.71692 3.48065 5.14416 3.48065 5.70549C3.48065 6.2549 3.89413 6.69448 4.53236 6.69448H4.54471C5.20834 6.69448 5.62096 6.2549 5.62096 5.70549C5.60834 5.14416 5.20834 4.71692 4.55734 4.71692ZM12.355 9.91616V13.1979H10.4524V10.1361C10.4524 9.36731 10.1777 8.84231 9.48878 8.84231C8.96307 8.84231 8.65076 9.19577 8.51284 9.53801C8.46275 9.66032 8.44984 9.83017 8.44984 10.0017V13.1977H6.54706C6.54706 13.1977 6.5726 8.0121 6.54706 7.47531H8.44998V8.28623C8.44819 8.28923 8.44605 8.29219 8.44393 8.29512C8.44153 8.29844 8.43916 8.30172 8.43735 8.30496H8.44998V8.28623C8.70284 7.89716 9.15377 7.34094 10.1648 7.34094C11.4165 7.34094 12.355 8.15881 12.355 9.91616ZM5.49581 13.1979H3.59374V7.47532H5.49581V13.1979Z" fill="white"/>
</mask>
<g mask="url(#mask0_2_435)">
<rect x="0.21875" y="0.802612" width="15.6571" height="15.6571" fill="white"/>
</g>
</svg>
