<svg width="16" height="17" viewBox="0 0 16 17" fill="none" xmlns="http://www.w3.org/2000/svg">
<path fill-rule="evenodd" clip-rule="evenodd" d="M11.3103 6.0282L11.2907 6.01515C10.8862 5.63025 10.41 5.44758 9.862 5.47368L9.84242 5.43454L9.85547 5.42801C10.3513 5.31711 10.6449 5.19968 10.7362 5.0692C10.7623 4.96482 10.7297 4.90611 10.6188 4.89306C10.3709 4.92568 10.136 4.97787 9.93376 5.06268C10.1947 4.89306 10.2926 4.77563 10.2339 4.71692C9.97942 4.72344 9.6989 4.85392 9.41185 5.11487C9.51623 4.9322 9.5619 4.82782 9.53581 4.81478C9.39228 4.90611 9.27485 5.01049 9.17047 5.12139C8.94866 5.3693 8.77252 5.59763 8.63552 5.80639L8.629 5.81944C8.28324 6.38701 8.03533 6.95458 7.89181 7.5352L7.83962 7.58087L7.82657 7.58739C7.61781 7.32644 7.36338 7.10463 7.06329 6.92849C6.711 6.69363 6.29348 6.47834 5.81072 6.26306C5.28881 5.98906 4.75386 5.76725 4.21891 5.59111C4.21239 6.19782 4.51248 6.67406 5.0931 7.02634V7.03287C4.89086 7.03287 4.68863 7.06549 4.49291 7.1242C4.53205 7.68525 4.93001 8.07015 5.68024 8.27891L5.67372 8.29196C5.38015 8.27239 5.13877 8.37677 4.94958 8.59205C5.19748 9.07482 5.63458 9.30315 6.26738 9.2901C6.14343 9.35534 6.04557 9.42058 5.98034 9.49886C5.86291 9.62281 5.82377 9.76634 5.86291 9.92943C5.99991 10.1773 6.24129 10.2882 6.6001 10.2687L6.61967 10.2948L6.61314 10.3078C5.99338 10.9471 5.24315 11.2342 4.36896 11.1755L4.35591 11.182C3.82096 11.1755 3.24687 10.921 2.62711 10.4122C3.24687 11.306 4.07539 11.9518 5.09962 12.3628C6.26738 12.7477 7.44167 12.7803 8.60943 12.4476H8.629C9.76414 12.1214 10.7231 11.443 11.519 10.4252C11.8844 9.89681 12.1127 9.38796 12.204 8.89867C12.7977 8.91824 13.2217 8.74863 13.4892 8.38329L13.4827 8.37025C13.2805 8.44201 12.8956 8.42244 12.328 8.30501V8.23977C12.9543 8.16801 13.3261 7.96577 13.4436 7.63306C13.0065 7.80267 12.5759 7.8092 12.1518 7.6461C12.0736 7.05896 11.793 6.51749 11.3103 6.0282Z" fill="#A8A8A8"/>
<mask id="mask0_2_427" style="mask-type:alpha" maskUnits="userSpaceOnUse" x="2" y="4" width="12" height="9">
<path fill-rule="evenodd" clip-rule="evenodd" d="M11.3103 6.0282L11.2907 6.01515C10.8862 5.63025 10.41 5.44758 9.862 5.47368L9.84242 5.43454L9.85547 5.42801C10.3513 5.31711 10.6449 5.19968 10.7362 5.0692C10.7623 4.96482 10.7297 4.90611 10.6188 4.89306C10.3709 4.92568 10.136 4.97787 9.93376 5.06268C10.1947 4.89306 10.2926 4.77563 10.2339 4.71692C9.97942 4.72344 9.6989 4.85392 9.41185 5.11487C9.51623 4.9322 9.5619 4.82782 9.53581 4.81478C9.39228 4.90611 9.27485 5.01049 9.17047 5.12139C8.94866 5.3693 8.77252 5.59763 8.63552 5.80639L8.629 5.81944C8.28324 6.38701 8.03533 6.95458 7.89181 7.5352L7.83962 7.58087L7.82657 7.58739C7.61781 7.32644 7.36338 7.10463 7.06329 6.92849C6.711 6.69363 6.29348 6.47834 5.81072 6.26306C5.28881 5.98906 4.75386 5.76725 4.21891 5.59111C4.21239 6.19782 4.51248 6.67406 5.0931 7.02634V7.03287C4.89086 7.03287 4.68863 7.06549 4.49291 7.1242C4.53205 7.68525 4.93001 8.07015 5.68024 8.27891L5.67372 8.29196C5.38015 8.27239 5.13877 8.37677 4.94958 8.59205C5.19748 9.07482 5.63458 9.30315 6.26738 9.2901C6.14343 9.35534 6.04557 9.42058 5.98034 9.49886C5.86291 9.62281 5.82377 9.76634 5.86291 9.92943C5.99991 10.1773 6.24129 10.2882 6.6001 10.2687L6.61967 10.2948L6.61314 10.3078C5.99338 10.9471 5.24315 11.2342 4.36896 11.1755L4.35591 11.182C3.82096 11.1755 3.24687 10.921 2.62711 10.4122C3.24687 11.306 4.07539 11.9518 5.09962 12.3628C6.26738 12.7477 7.44167 12.7803 8.60943 12.4476H8.629C9.76414 12.1214 10.7231 11.443 11.519 10.4252C11.8844 9.89681 12.1127 9.38796 12.204 8.89867C12.7977 8.91824 13.2217 8.74863 13.4892 8.38329L13.4827 8.37025C13.2805 8.44201 12.8956 8.42244 12.328 8.30501V8.23977C12.9543 8.16801 13.3261 7.96577 13.4436 7.63306C13.0065 7.80267 12.5759 7.8092 12.1518 7.6461C12.0736 7.05896 11.793 6.51749 11.3103 6.0282Z" fill="white"/>
</mask>
<g mask="url(#mask0_2_427)">
<rect x="0.0175781" y="0.802612" width="15.6571" height="15.6571" fill="white"/>
</g>
</svg>
